<svg xmlns="http://www.w3.org/2000/svg" viewBox="0 0 22.05 14.59"><defs><style>.cls-1{fill:#fff;}.cls-2{fill:none;stroke:#fff;stroke-miterlimit:10;stroke-width:1.25px;}</style></defs><g id="Layer_2" data-name="Layer 2"><g id="レイヤー_3" data-name="レイヤー 3"><path class="cls-1" d="M19.9,1.25a.92.92,0,0,1,.9.91V12.44a.9.9,0,0,1-.9.9H2.16a.9.9,0,0,1-.91-.9V2.16a.93.93,0,0,1,.91-.91H19.9M19.9,0H2.16A2.16,2.16,0,0,0,0,2.16V12.44a2.16,2.16,0,0,0,2.16,2.15H19.9a2.16,2.16,0,0,0,2.15-2.15V2.16A2.16,2.16,0,0,0,19.9,0Z"/><polyline class="cls-2" points="0.63 1.25 11.03 10.02 21.43 1.25"/></g></g></svg>