<svg xmlns="http://www.w3.org/2000/svg" viewBox="0 0 70.5 31.54"><defs><style>.cls-1{fill:#f80000;}.cls-2{fill:#fff;}</style></defs><g id="Layer_2" data-name="Layer 2"><g id="レイヤー_3" data-name="レイヤー 3"><rect class="cls-1" width="70.5" height="31.54"/><path class="cls-2" d="M22.67,23.5a7.76,7.76,0,0,1-.08-1.36A4.75,4.75,0,0,0,22.51,21a5.81,5.81,0,0,0-.22-1.59A5,5,0,0,0,21.76,18a3.31,3.31,0,0,0-.91-1.14,3.91,3.91,0,0,0-1.37-.68v-.08A4.82,4.82,0,0,0,22,14a6.19,6.19,0,0,0,.76-3.18,5.24,5.24,0,0,0-.45-2.2,6.06,6.06,0,0,0-1.22-1.82,5.34,5.34,0,0,0-1.89-1.21,6.74,6.74,0,0,0-2.5-.46H5.53v20.7h4.55v-8h4.55a3.41,3.41,0,0,1,2.5.76,4,4,0,0,1,1,2.35c.07.84.23,1.75.23,2.66a9.62,9.62,0,0,0,.45,2.35h4.55a2.33,2.33,0,0,1-.46-1.06C22.82,24.41,22.74,24,22.67,23.5Zm-5.23-9.63a3.47,3.47,0,0,1-2.35.69h-5V8.72h5a3.52,3.52,0,0,1,2.35.68,2.76,2.76,0,0,1,.75,2.2A2.58,2.58,0,0,1,17.44,13.87ZM65,9V5.23H50.34v20.7h4.54V17.36h8.65V13.8H55V9ZM40.71,18a5.42,5.42,0,0,1-.91,3.41,4.37,4.37,0,0,1-3.34,1.07,5.92,5.92,0,0,1-2.2-.38,4.47,4.47,0,0,1-1.28-1,3.07,3.07,0,0,1-.61-1.44A10.8,10.8,0,0,1,32.22,18V5.15H27.67V18c0,2.81.76,4.93,2.27,6.29a9.46,9.46,0,0,0,6.52,2.05A9.7,9.7,0,0,0,43,24.33c1.59-1.36,2.35-3.41,2.35-6.21V5.23H40.78V18Z"/></g></g></svg>