<svg xmlns="http://www.w3.org/2000/svg" viewBox="0 0 208.5 93.27"><defs><style>.cls-1{fill:#fff;}</style></defs><g id="Layer_2" data-name="Layer 2"><g id="レイヤー_3" data-name="レイヤー 3"><path class="cls-1" d="M207.55,1V92.31H1V1h206.6M208.5,0H0V93.27H208.5V0Z"/><path class="cls-1" d="M67,69.5a23.7,23.7,0,0,1-.23-4,15.18,15.18,0,0,0-.22-3.37,16.91,16.91,0,0,0-.68-4.7,13.77,13.77,0,0,0-1.56-4.26,10,10,0,0,0-2.69-3.37,11.27,11.27,0,0,0-4-2v-.23A14.37,14.37,0,0,0,65,41.48a18.3,18.3,0,0,0,2.24-9.42,15.31,15.31,0,0,0-1.35-6.5,17.22,17.22,0,0,0-3.58-5.38,16.14,16.14,0,0,0-5.61-3.59,19.85,19.85,0,0,0-7.4-1.34H16.37v61.2H29.82V52.69H43.27c3.36,0,5.83.67,7.4,2.24s2.47,3.81,2.91,7c.23,2.47.68,5.16.68,7.85a29.36,29.36,0,0,0,1.34,7H69.05a6.72,6.72,0,0,1-1.34-3.14C67.48,72.19,67.26,70.85,67,69.5ZM51.57,41c-1.57,1.34-3.82,2-7,2H29.82V25.78h14.8c3.13,0,5.38.68,7,2s2.24,3.59,2.24,6.5C54,37.44,53.14,39.68,51.57,41ZM192.14,26.68V15.47H148.87V76.68h13.45V51.34h25.56V40.81H162.54V26.68ZM120.39,53.36q0,6.74-2.68,10.09c-1.8,2-5.16,3.14-9.87,3.14a17,17,0,0,1-6.5-1.12,13.12,13.12,0,0,1-3.81-2.92,9.14,9.14,0,0,1-1.8-4.26,34.23,34.23,0,0,1-.44-4.93V15.25H81.83V53.36c0,8.3,2.25,14.57,6.73,18.61s11,6,19.28,6c8.07,0,14.57-2,19.28-6s6.95-10.09,6.95-18.39V15.47H120.62V53.36Z"/></g></g></svg>