<svg xmlns="http://www.w3.org/2000/svg" viewBox="0 0 128.17 57.65"><defs><style>.cls-1{fill:none;stroke:#fff;stroke-miterlimit:10;stroke-width:0.58px;}.cls-2{fill:#fff;}</style></defs><g id="Layer_2" data-name="Layer 2"><g id="レイヤー_3" data-name="レイヤー 3"><rect class="cls-1" x="0.29" y="0.29" width="127.58" height="57.07"/><path class="cls-2" d="M41.31,42.82a14.62,14.62,0,0,1-.14-2.47A9.62,9.62,0,0,0,41,38.29a10.24,10.24,0,0,0-.42-2.88,8,8,0,0,0-1-2.6A6.06,6.06,0,0,0,38,30.75a7.09,7.09,0,0,0-2.47-1.24v-.13a8.82,8.82,0,0,0,4.53-3.71,11.22,11.22,0,0,0,1.37-5.76,9.39,9.39,0,0,0-.83-4,10.52,10.52,0,0,0-2.19-3.29A9.87,9.87,0,0,0,35,10.44a12.25,12.25,0,0,0-4.53-.82H10.31V47.07h8.23V32.53h8.23c2.06,0,3.56.41,4.53,1.37a7.24,7.24,0,0,1,1.78,4.25c.14,1.51.41,3.16.41,4.81a18.32,18.32,0,0,0,.82,4.25h8.23a4.16,4.16,0,0,1-.82-1.92C41.58,44.46,41.45,43.64,41.31,42.82ZM31.84,25.4a6.3,6.3,0,0,1-4.25,1.23h-9V16.07h9.05a6.3,6.3,0,0,1,4.25,1.23,5,5,0,0,1,1.38,4A4.75,4.75,0,0,1,31.84,25.4Zm86-8.78V9.76H91.38V47.21h8.24V31.71h15.63V25.26H99.75V16.62ZM74,32.94c0,2.75-.55,4.8-1.64,6.17S69.16,41,66.28,41a10.39,10.39,0,0,1-4-.69A8.17,8.17,0,0,1,60,38.57,5.63,5.63,0,0,1,58.87,36a20.18,20.18,0,0,1-.27-3V9.62H50.37V32.94c0,5.08,1.37,8.92,4.11,11.39S61.2,48,66.28,48s8.92-1.23,11.8-3.7,4.25-6.18,4.25-11.25V9.76H74.1V32.94Z"/></g></g></svg>