<svg xmlns="http://www.w3.org/2000/svg" viewBox="0 0 28.23 12.7"><g id="Layer_2" data-name="Layer 2"><g id="design"><path fill="none" stroke="#fff" stroke-miterlimit="10" stroke-width=".13" d="M.06.06h28.1v12.57H.06z"/><path d="M9.1 9.43a3.26 3.26 0 010-.54 2.13 2.13 0 000-.46A2.28 2.28 0 009 7.8a1.86 1.86 0 00-.21-.57 1.3 1.3 0 00-.37-.46 1.52 1.52 0 00-.54-.27 1.92 1.92 0 001-.82 2.45 2.45 0 00.3-1.26A2.07 2.07 0 009 3.51a2.34 2.34 0 00-.49-.73 2.15 2.15 0 00-.75-.48 2.7 2.7 0 00-1-.18H2.27v8.25h1.81v-3.2H5.9a1.35 1.35 0 011 .3 1.57 1.57 0 01.4.93c0 .34.09.7.09 1.06a4 4 0 00.18.94h1.8a.9.9 0 01-.18-.4zM7 5.59a1.33 1.33 0 01-.93.28h-2V3.54h2a1.38 1.38 0 01.93.27 1.08 1.08 0 01.31.88 1 1 0 01-.31.9zm19-1.93V2.15h-5.87v8.25h1.81V7h3.45V5.56H22v-1.9zm-9.67 3.6a2.18 2.18 0 01-.36 1.36A1.76 1.76 0 0114.6 9a2.32 2.32 0 01-.88-.15 1.62 1.62 0 01-.51-.4 1.22 1.22 0 01-.21-.53 4.49 4.49 0 01-.06-.66V2.12h-1.85v5.14a3.23 3.23 0 00.91 2.5 3.74 3.74 0 002.6.82 3.86 3.86 0 002.6-.82 3.06 3.06 0 00.93-2.47V2.15h-1.81v5.11z" fill="#fff"/></g></g></svg>