<svg xmlns="http://www.w3.org/2000/svg" viewBox="0 0 22.05 14.59"><g id="Layer_2" data-name="Layer 2"><g id="レイヤー_3" data-name="レイヤー 3"><path d="M19.9 1.25a.92.92 0 01.9.91v10.28a.9.9 0 01-.9.9H2.16a.9.9 0 01-.91-.9V2.16a.93.93 0 01.91-.91H19.9m0-1.25H2.16A2.16 2.16 0 000 2.16v10.28a2.16 2.16 0 002.16 2.15H19.9a2.16 2.16 0 002.15-2.15V2.16A2.16 2.16 0 0019.9 0z" fill="#fff"/><path fill="none" stroke="#fff" stroke-miterlimit="10" stroke-width="1.25" d="M.63 1.25l10.4 8.77 10.4-8.77"/></g></g></svg>