<svg xmlns="http://www.w3.org/2000/svg" viewBox="0 0 208.5 93.27"><defs><style>.cls-1{fill:#fff}</style></defs><g id="Layer_2" data-name="Layer 2"><g id="レイヤー_3" data-name="レイヤー 3"><path class="cls-1" d="M207.55 1v91.31H1V1h206.6m.9-1H0v93.27h208.5V0z"/><path class="cls-1" d="M67 69.5a23.7 23.7 0 01-.23-4 15.18 15.18 0 00-.22-3.37 16.91 16.91 0 00-.68-4.7 13.77 13.77 0 00-1.56-4.26 10 10 0 00-2.69-3.37 11.27 11.27 0 00-4-2v-.23A14.37 14.37 0 0065 41.48a18.3 18.3 0 002.24-9.42 15.31 15.31 0 00-1.35-6.5 17.22 17.22 0 00-3.58-5.38 16.14 16.14 0 00-5.61-3.59 19.85 19.85 0 00-7.4-1.34H16.37v61.2h13.45V52.69h13.45c3.36 0 5.83.67 7.4 2.24s2.47 3.81 2.91 7c.23 2.47.68 5.16.68 7.85a29.36 29.36 0 001.34 7h13.45a6.72 6.72 0 01-1.34-3.14c-.23-1.45-.45-2.79-.71-4.14zM51.57 41c-1.57 1.34-3.82 2-7 2H29.82V25.78h14.8c3.13 0 5.38.68 7 2s2.24 3.59 2.24 6.5c.14 3.16-.72 5.4-2.29 6.72zm140.57-14.32V15.47h-43.27v61.21h13.45V51.34h25.56V40.81h-25.34V26.68zm-71.75 26.68q0 6.74-2.68 10.09c-1.8 2-5.16 3.14-9.87 3.14a17 17 0 01-6.5-1.12 13.12 13.12 0 01-3.81-2.92 9.14 9.14 0 01-1.8-4.26 34.23 34.23 0 01-.44-4.93V15.25H81.83v38.11c0 8.3 2.25 14.57 6.73 18.61s11 6 19.28 6c8.07 0 14.57-2 19.28-6s6.95-10.09 6.95-18.39V15.47h-13.45v37.89z"/></g></g></svg>