<svg xmlns="http://www.w3.org/2000/svg" viewBox="0 0 70.5 31.54"><g id="Layer_2" data-name="Layer 2"><g id="レイヤー_3" data-name="レイヤー 3"><path fill="#f80000" d="M0 0h70.5v31.54H0z"/><path d="M22.67 23.5a7.76 7.76 0 01-.08-1.36 4.75 4.75 0 00-.08-1.14 5.81 5.81 0 00-.22-1.59 5 5 0 00-.53-1.41 3.31 3.31 0 00-.91-1.14 3.91 3.91 0 00-1.37-.68v-.08A4.82 4.82 0 0022 14a6.19 6.19 0 00.76-3.18 5.24 5.24 0 00-.45-2.2 6.06 6.06 0 00-1.22-1.82 5.34 5.34 0 00-1.89-1.21 6.74 6.74 0 00-2.5-.46H5.53v20.7h4.55v-8h4.55a3.41 3.41 0 012.5.76 4 4 0 011 2.35c.07.84.23 1.75.23 2.66a9.62 9.62 0 00.45 2.35h4.55a2.33 2.33 0 01-.46-1.06c-.08-.48-.16-.89-.23-1.39zm-5.23-9.63a3.47 3.47 0 01-2.35.69h-5V8.72h5a3.52 3.52 0 012.35.68 2.76 2.76 0 01.75 2.2 2.58 2.58 0 01-.75 2.27zM65 9V5.23H50.34v20.7h4.54v-8.57h8.65V13.8H55V9zm-24.29 9a5.42 5.42 0 01-.91 3.41 4.37 4.37 0 01-3.34 1.07 5.92 5.92 0 01-2.2-.38 4.47 4.47 0 01-1.28-1 3.07 3.07 0 01-.61-1.44 10.8 10.8 0 01-.15-1.66V5.15h-4.55V18c0 2.81.76 4.93 2.27 6.29a9.46 9.46 0 006.52 2.05A9.7 9.7 0 0043 24.33c1.59-1.36 2.35-3.41 2.35-6.21V5.23h-4.57V18z" fill="#fff"/></g></g></svg>