<svg xmlns="http://www.w3.org/2000/svg" viewBox="0 0 28.23 12.7"><defs><style>.cls-1{fill:none;stroke:#fff;stroke-miterlimit:10;stroke-width:0.13px;}.cls-2{fill:#fff;}</style></defs><g id="Layer_2" data-name="Layer 2"><g id="design"><rect class="cls-1" x="0.06" y="0.06" width="28.1" height="12.57"/><path class="cls-2" d="M9.1,9.43a3.26,3.26,0,0,1,0-.54,2.13,2.13,0,0,0,0-.46A2.28,2.28,0,0,0,9,7.8a1.86,1.86,0,0,0-.21-.57,1.3,1.3,0,0,0-.37-.46,1.52,1.52,0,0,0-.54-.27v0a1.92,1.92,0,0,0,1-.82,2.45,2.45,0,0,0,.3-1.26A2.07,2.07,0,0,0,9,3.51a2.34,2.34,0,0,0-.49-.73,2.15,2.15,0,0,0-.75-.48,2.7,2.7,0,0,0-1-.18H2.27v8.25H4.08V7.17H5.9a1.35,1.35,0,0,1,1,.3,1.57,1.57,0,0,1,.4.93c0,.34.09.7.09,1.06a4,4,0,0,0,.18.94H9.37A.9.9,0,0,1,9.19,10ZM7,5.59a1.33,1.33,0,0,1-.93.28h-2V3.54h2A1.38,1.38,0,0,1,7,3.81a1.08,1.08,0,0,1,.31.88A1,1,0,0,1,7,5.59ZM26,3.66V2.15H20.13V10.4h1.81V7h3.45V5.56H22V3.66Zm-9.67,3.6a2.18,2.18,0,0,1-.36,1.36A1.76,1.76,0,0,1,14.6,9a2.32,2.32,0,0,1-.88-.15,1.62,1.62,0,0,1-.51-.4A1.22,1.22,0,0,1,13,7.92a4.49,4.49,0,0,1-.06-.66V2.12H11.09V7.26A3.23,3.23,0,0,0,12,9.76a3.74,3.74,0,0,0,2.6.82,3.86,3.86,0,0,0,2.6-.82,3.06,3.06,0,0,0,.93-2.47V2.15H16.32V7.26Z"/></g></g></svg>