<svg xmlns="http://www.w3.org/2000/svg" width="35.12" height="28.6" viewBox="0 0 35.12 28.6"><g id="Layer_2" data-name="Layer 2"><g id="レイヤー_3" data-name="レイヤー 3"><polyline points="2.81 25.38 2.81 3.64 16.49 0.64 16.49 25.38" fill="none" stroke="#0093ee" stroke-linecap="round" stroke-linejoin="round" stroke-width="1.27"/><polyline points="20.46 9.4 20.46 2.41 16.49 0.64" fill="none" stroke="#0093ee" stroke-linecap="round" stroke-linejoin="round" stroke-width="1.27"/><line x1="4.94" y1="6.48" x2="15.1" y2="4.4" fill="none" stroke="#e63323" stroke-linecap="round" stroke-linejoin="round" stroke-width="1.27" stroke-dasharray="0.18 2.12"/><line x1="4.94" y1="9.75" x2="15.1" y2="7.94" fill="none" stroke="#e63323" stroke-linecap="round" stroke-linejoin="round" stroke-width="1.27" stroke-dasharray="0.18 2.12"/><line x1="4.94" y1="12.83" x2="15.1" y2="11.44" fill="none" stroke="#e63323" stroke-linecap="round" stroke-linejoin="round" stroke-width="1.27" stroke-dasharray="0.18 2.12"/><line x1="4.94" y1="15.97" x2="15.1" y2="14.95" fill="none" stroke="#e63323" stroke-linecap="round" stroke-linejoin="round" stroke-width="1.27" stroke-dasharray="0.18 2.12"/><line x1="4.94" y1="19.05" x2="15.1" y2="18.4" fill="none" stroke="#e63323" stroke-linecap="round" stroke-linejoin="round" stroke-width="1.27" stroke-dasharray="0.18 2.12"/><line x1="4.94" y1="22.13" x2="15.1" y2="21.91" fill="none" stroke="#e63323" stroke-linecap="round" stroke-linejoin="round" stroke-width="1.27" stroke-dasharray="0.18 2.12"/><line x1="0.63" y1="25.41" x2="34.48" y2="25.41" fill="none" stroke="#0093ee" stroke-linecap="round" stroke-linejoin="round" stroke-width="1.27"/><line x1="16.88" y1="27.96" x2="31.33" y2="27.96" fill="none" stroke="#0093ee" stroke-linecap="round" stroke-linejoin="round" stroke-width="1.27"/><line x1="3.79" y1="27.96" x2="8.49" y2="27.96" fill="none" stroke="#0093ee" stroke-linecap="round" stroke-linejoin="round" stroke-width="1.27"/><polyline points="11.31 27.96 13.5 27.96 14.53 27.96" fill="none" stroke="#0093ee" stroke-linecap="round" stroke-linejoin="round" stroke-width="1.27" stroke-dasharray="0.25 2.22"/><polygon points="29.35 25.38 19.15 25.38 19.15 11.65 29.35 9.4 29.35 25.38" fill="none" stroke="#0093ee" stroke-linecap="round" stroke-linejoin="round" stroke-width="1.27"/><polygon points="29.35 25.38 32.31 25.38 32.31 10.73 29.35 9.4 29.35 25.38" fill="none" stroke="#0093ee" stroke-linecap="round" stroke-linejoin="round" stroke-width="1.27"/><line x1="19.15" y1="16.21" x2="29.35" y2="14.82" fill="none" stroke="#0093ee" stroke-linecap="round" stroke-linejoin="round" stroke-width="1.27"/><line x1="19.15" y1="20.74" x2="29.35" y2="20.1" fill="none" stroke="#0093ee" stroke-linecap="round" stroke-linejoin="round" stroke-width="1.27"/><line x1="21.37" y1="11.23" x2="21.37" y2="25.38" fill="none" stroke="#0093ee" stroke-linecap="round" stroke-linejoin="round" stroke-width="1.27"/><line x1="23.88" y1="10.61" x2="23.88" y2="25.38" fill="none" stroke="#0093ee" stroke-linecap="round" stroke-linejoin="round" stroke-width="1.27"/><line x1="26.57" y1="10.07" x2="26.57" y2="25.38" fill="none" stroke="#0093ee" stroke-linecap="round" stroke-linejoin="round" stroke-width="1.27"/></g></g></svg>