<svg xmlns="http://www.w3.org/2000/svg" viewBox="0 0 39.61 32.7"><defs><style>.cls-1{fill:#15377b;}</style></defs><g id="Layer_2" data-name="Layer 2"><g id="レイヤー_3" data-name="レイヤー 3"><path class="cls-1" d="M1.81,9.59l.91.94a2.43,2.43,0,0,0-.83,0,1.13,1.13,0,0,0-.55.31,1.24,1.24,0,0,0-.4.93,1.35,1.35,0,0,0,.41,1,1.41,1.41,0,0,0,.95.46,1.22,1.22,0,0,0,.93-.35,1.29,1.29,0,0,0,.34-.55,2.43,2.43,0,0,0,0-.85l.91.94a2.53,2.53,0,0,1-.65,1.06,2.3,2.3,0,0,1-1.64.69,2.12,2.12,0,0,1-1.59-.69A2.14,2.14,0,0,1,0,11.83,2.31,2.31,0,0,1,.74,10.2,2.44,2.44,0,0,1,1.81,9.59Z"/><path class="cls-1" d="M6,8.78a2.1,2.1,0,0,1-.18-1.7A2.2,2.2,0,0,1,7,5.74a2.27,2.27,0,0,1,3.28,2.62A2.28,2.28,0,0,1,9.1,9.71,2.22,2.22,0,0,1,6,8.78Zm.89-.47A1.46,1.46,0,0,0,7.7,9a1.2,1.2,0,0,0,1-.11,1.25,1.25,0,0,0,.64-.78,1.43,1.43,0,0,0-.18-1,1.44,1.44,0,0,0-.78-.71,1.23,1.23,0,0,0-1,.12,1.21,1.21,0,0,0-.62.77A1.39,1.39,0,0,0,6.91,8.31Z"/><path class="cls-1" d="M13.27,0l2,7.16-1,.26-2-7.16Z"/><path class="cls-1" d="M19.55,2.13l.11,2.45c0,.71.33,1,.89,1s.82-.39.79-1.1l-.11-2.46,1,0,.11,2.47a3.08,3.08,0,0,1-.09.9,1.47,1.47,0,0,1-.4.62,2.07,2.07,0,0,1-2.54.11,1.48,1.48,0,0,1-.46-.58,2.3,2.3,0,0,1-.16-.88l-.12-2.47Z"/><path class="cls-1" d="M27,2.35l.95.26-.1.38a2,2,0,0,1,.57-.26,1.09,1.09,0,0,1,.56,0,1.33,1.33,0,0,1,.94.91,1.5,1.5,0,0,1,1.38-.29c.93.25,1.24.94.94,2.07L31.57,8l-1-.26.61-2.3a1.69,1.69,0,0,0,.08-.88.53.53,0,0,0-.42-.38.63.63,0,0,0-.65.15,2,2,0,0,0-.44.9l-.57,2.14-1-.26.61-2.28c.2-.74.09-1.16-.34-1.28a.64.64,0,0,0-.66.15,1.79,1.79,0,0,0-.44.9l-.58,2.13-1-.26Z"/><path class="cls-1" d="M37,6l.84.54-.22.33a1.63,1.63,0,0,1,1.27.21,1.51,1.51,0,0,1,.72,1,1.88,1.88,0,0,1-.41,1.29l-1.42,2.21L36.94,11l1.29-2a1.56,1.56,0,0,0,.33-.83.71.71,0,0,0-.39-.54.75.75,0,0,0-.76-.11,2.33,2.33,0,0,0-.78.83l-1.12,1.74-.83-.54Z"/><path class="cls-1" d="M11.65,32.7l8.75-.05,8.75.05.68-2.84H11Z"/><path class="cls-1" d="M32.67,16.16a1.78,1.78,0,0,0-1.77,1.78,1.74,1.74,0,0,0,.58,1.31,9.79,9.79,0,0,1-4.31,2.87,3.22,3.22,0,0,1-1.13.1c-1.46-.14-2.45-1.41-3.22-2.63A24,24,0,0,1,21,16a1.76,1.76,0,0,0,1.14-1.65A1.78,1.78,0,1,0,19.76,16,23.09,23.09,0,0,1,18,19.59c-.77,1.22-1.76,2.49-3.22,2.63a3.14,3.14,0,0,1-1.12-.1,9.68,9.68,0,0,1-4.31-2.87,1.78,1.78,0,1,0-1.2.46,1.9,1.9,0,0,0,.41,0c.5,2.12,1.39,5.85,2.09,8.77H30.17l2.1-8.77a1.75,1.75,0,0,0,.4,0,1.78,1.78,0,1,0,0-3.55Z"/></g></g></svg>