<svg xmlns="http://www.w3.org/2000/svg" width="70" height="31" viewBox="0 0 70 31"><g id="Layer_2" data-name="Layer 2"><g id="レイヤー_3" data-name="レイヤー 3"><rect width="70" height="31" fill="#e63323"/><path d="M22.51,23.1a7.54,7.54,0,0,1-.08-1.34,5.26,5.26,0,0,0-.07-1.12,5.61,5.61,0,0,0-.23-1.56,4.42,4.42,0,0,0-.53-1.42,3.19,3.19,0,0,0-.9-1.12,4,4,0,0,0-1.36-.67V15.8a4.87,4.87,0,0,0,2.49-2,6,6,0,0,0,.75-3.13,5.06,5.06,0,0,0-.45-2.16,5.86,5.86,0,0,0-1.2-1.79A5.46,5.46,0,0,0,19,5.51a6.84,6.84,0,0,0-2.48-.44H5.5V25.41H10v-7.9h4.52a3.41,3.41,0,0,1,2.48.75,3.84,3.84,0,0,1,1,2.31c.07.82.23,1.71.23,2.61a9.37,9.37,0,0,0,.45,2.31h4.51a2.35,2.35,0,0,1-.45-1C22.66,24,22.58,23.55,22.51,23.1Zm-5.2-9.46a3.5,3.5,0,0,1-2.33.67H10V8.57h5a3.45,3.45,0,0,1,2.33.67,2.7,2.7,0,0,1,.75,2.16A2.53,2.53,0,0,1,17.31,13.64Zm47.2-4.77V5.14H50V25.49H54.5V17.07h8.58V13.56H54.57V8.87ZM40.42,17.74a5.27,5.27,0,0,1-.9,3.35,4.39,4.39,0,0,1-3.31,1A5.85,5.85,0,0,1,34,21.76a4.58,4.58,0,0,1-1.28-1,3,3,0,0,1-.6-1.41A12,12,0,0,1,32,17.74V5.07H27.47V17.74c0,2.75.76,4.84,2.26,6.18a9.49,9.49,0,0,0,6.48,2,9.74,9.74,0,0,0,6.47-2C44.26,22.58,45,20.57,45,17.81V5.14H40.5v12.6Z" fill="#fff"/></g></g></svg>