<svg xmlns="http://www.w3.org/2000/svg" viewBox="0 0 20.82 26.22"><defs><style>.cls-1{fill:#15377b;}.cls-2{fill:#e63323;}</style></defs><g id="Layer_2" data-name="Layer 2"><g id="レイヤー_3" data-name="レイヤー 3"><path class="cls-1" d="M15.34,10.35a5.17,5.17,0,0,1-5.15-5.2A5.11,5.11,0,0,1,11.7,1.51a5.2,5.2,0,0,1,7.32,0,5.17,5.17,0,0,1,0,7.32h0a5.1,5.1,0,0,1-3.64,1.52Zm0-9.34A4.15,4.15,0,0,0,11.2,5.16a4.16,4.16,0,0,0,7.11,3h0a4.16,4.16,0,0,0,0-5.89A4.12,4.12,0,0,0,15.36,1Z"/><path class="cls-1" d="M2.59,20.23a.47.47,0,0,1-.35-.15L.45,18.3a.53.53,0,0,1,0-.67L10.29,4.85a.52.52,0,0,1,.57-.17.51.51,0,0,1,.34.48,4.15,4.15,0,0,0,4.17,4.18h0a.51.51,0,0,1,.47.34.5.5,0,0,1-.16.56L2.9,20.12A.51.51,0,0,1,2.59,20.23ZM1.48,17.9l1.15,1.15L14.1,10.2a5.22,5.22,0,0,1-3.76-3.76Z"/><path class="cls-1" d="M18.86,9.36a.51.51,0,0,1-.36-.15L11.32,2A.5.5,0,0,1,12,1.32L19.22,8.5a.51.51,0,0,1,0,.71A.51.51,0,0,1,18.86,9.36Z"/><path class="cls-2" d="M4.52,26.22a4.53,4.53,0,0,1-3.2-7.72.51.51,0,0,1,.72,0,.5.5,0,0,1,0,.71H2a3.52,3.52,0,0,0,2.48,6,3.53,3.53,0,0,0,2.49-1l8.93-8.93a2.86,2.86,0,0,1,4,4.05l-2.65,2.64a.5.5,0,0,1-.71-.71l2.65-2.65a1.86,1.86,0,0,0,0-2.62,1.86,1.86,0,0,0-2.62,0L7.72,24.89A4.47,4.47,0,0,1,4.52,26.22Z"/></g></g></svg>