<svg xmlns="http://www.w3.org/2000/svg" width="23" height="22.88" viewBox="0 0 23 22.88"><g id="Layer_2" data-name="Layer 2"><g id="レイヤー_3" data-name="レイヤー 3"><path d="M20.34,2.94a6.84,6.84,0,0,0-4.66-1.82C14.34,1,13,1,11.68,1h-.36c-1.33,0-2.66,0-4,.12A6.84,6.84,0,0,0,2.66,2.94,6.16,6.16,0,0,0,1,7.41v8a6.19,6.19,0,0,0,1.66,4.49,6.85,6.85,0,0,0,4.66,1.84c1.34.08,2.67.12,4,.12h.36c1.33,0,2.66,0,4-.12a6.85,6.85,0,0,0,4.66-1.84A6.19,6.19,0,0,0,22,15.43v-8A6.16,6.16,0,0,0,20.34,2.94Z" fill="none" stroke="#0093ee" stroke-linecap="round" stroke-linejoin="round" stroke-width="2"/><path d="M8.24,16.33V6.54l8,4.9ZM9.5,8.78v5.31l4.33-2.65Z" fill="#e63323"/></g></g></svg>