<svg xmlns="http://www.w3.org/2000/svg" xmlns:xlink="http://www.w3.org/1999/xlink" viewBox="0 0 267.98 234.59"><defs><linearGradient id="linear-gradient" x1="-31.29" y1="64.72" x2="147.56" y2="64.72" gradientUnits="userSpaceOnUse"><stop offset="0" stop-color="#00ad81"/><stop offset="1" stop-color="#00c792"/></linearGradient><linearGradient id="linear-gradient-2" x1="104.91" y1="129.11" x2="182.99" y2="129.11" xlink:href="#linear-gradient"/><linearGradient id="linear-gradient-3" x1="75.21" y1="12.53" x2="145.98" y2="12.53" xlink:href="#linear-gradient"/><clipPath id="clip-path" transform="translate(31.29 47.66)"><path class="cls-1" d="M0 0h220v129.43H0z"/></clipPath><clipPath id="clip-path-2" transform="translate(31.29 47.66)"><path class="cls-1" d="M0 0h173.07v129.43H0z"/></clipPath><style>.cls-1{fill:none}</style></defs><g style="isolation:isolate"><g id="Layer_2" data-name="Layer 2"><g id="design"><g clip-path="url(#clip-path)"><image width="900" height="480" transform="matrix(.29 0 0 .29 5.11 44.59)" xlink:href="C:%5CUsers%5CHIPE27%5CDownloads%5CAd-RUF_Greg%5CR0310%E3%83%AB%E3%83%BC%E3%83%95_%E3%83%90%E3%83%AA%E3%83%A5%E3%83%BC%E3%82%A2%E3%83%83%E3%83%97%E4%BA%8B%E4%BE%8B_%E8%A9%B3%E7%B4%B04_%E3%83%95%E3%82%A9%E3%83%AB%E3%83%80%E3%83%BC%5CLinks%5Ccase_img_04.jpg"/></g><g clip-path="url(#clip-path-2)"><path d="M128.26 94a2.24 2.24 0 012.86.87l2 3.18a2.93 2.93 0 005-3.09L78.7 0h-110v129.43h178.86l-20.18-32.29a2.17 2.17 0 01.88-3.14z" transform="translate(31.29 47.66)" style="mix-blend-mode:multiply" fill="url(#linear-gradient)"/><path d="M112.54 74.65a.7.7 0 00-.22 1l5.87 9.4a1.52 1.52 0 11-2.58 1.61l-9.38-15a.72.72 0 00-1-.23.73.73 0 00-.23 1l12.31 19.69a2.92 2.92 0 01-5 3.1l-2-3.18a2.24 2.24 0 00-2.86-.87 2.17 2.17 0 00-.88 3.1l38.74 62a2.24 2.24 0 002.86.88 2.17 2.17 0 00.88-3.1l-4.86-7.78a2.93 2.93 0 015-3.1L170.38 177a.72.72 0 001 .23.72.72 0 00.23-1l-4.73-7.56a1.52 1.52 0 012.58-1.61l12.21 19.55a.72.72 0 001.22-.76l-13-20.83-49.68-79.45-6.68-10.69a.72.72 0 00-.99-.23zm26.38 49.28a.72.72 0 11-1.22.76l-15.34-24.55a.72.72 0 01.23-1 .71.71 0 011 .23z" transform="translate(31.29 47.66)" fill="url(#linear-gradient-2)"/><path d="M75.31-38.58L82-27.89l49.65 79.44 13 20.84a.72.72 0 001 .22.71.71 0 00.22-1l-12.21-19.53a1.52 1.52 0 012.58-1.61L141 58a.71.71 0 101.21-.76L121 23.41a2.93 2.93 0 015-3.1l4.86 7.77a2.17 2.17 0 003.17.57 2.23 2.23 0 00.47-2.95l-38.75-62a2.17 2.17 0 00-3.17-.57 2.24 2.24 0 00-.46 3l2 3.18a2.92 2.92 0 01-.93 4 2.92 2.92 0 01-4-.93l-12.38-19.7a.72.72 0 00-1-.23.71.71 0 00-.23 1l9.39 15a1.51 1.51 0 01-.48 2.09 1.52 1.52 0 01-2.1-.48l-5.87-9.4a.73.73 0 00-1-.23.74.74 0 00-.21.99zm17.63 19.77a.72.72 0 01.23-1 .71.71 0 011 .23L109.5 5a.72.72 0 01-1.22.76z" transform="translate(31.29 47.66)" fill="url(#linear-gradient-3)"/><path d="M80.25-25.13a2.94 2.94 0 00-.94 4.05l8.86 14.17a2.9 2.9 0 01-.93 4 2.9 2.9 0 01-4-.92l-14.31-22.9-6.68-10.69a.72.72 0 00-1-.23.72.72 0 00-.22 1l5.87 9.4a1.51 1.51 0 01-.48 2.09 1.52 1.52 0 01-2.1-.48L55-40.67a.72.72 0 00-1-.23.72.72 0 00-.23 1L119.1 64.69a.72.72 0 001.22-.76l-4.73-7.56a1.5 1.5 0 01.49-2.09 1.51 1.51 0 012.09.48l12.21 19.54a.72.72 0 001 .23.72.72 0 00.23-1l-13-20.84-3.47-5.54a2.91 2.91 0 01.93-4 2.9 2.9 0 014 .93l11 17.65a2.94 2.94 0 004.05.93 2.94 2.94 0 00.94-4.05L84.3-24.19a2.94 2.94 0 00-4.05-.94z" transform="translate(31.29 47.66)" fill="#00b472"/></g></g></g></g></svg>