<svg xmlns="http://www.w3.org/2000/svg" viewBox="0 0 128.17 57.65"><g id="Layer_2" data-name="Layer 2"><g id="レイヤー_3" data-name="レイヤー 3"><path fill="none" stroke="#fff" stroke-miterlimit="10" stroke-width=".58" d="M.29.29h127.58v57.07H.29z"/><path d="M41.31 42.82a14.62 14.62 0 01-.14-2.47 9.62 9.62 0 00-.17-2.06 10.24 10.24 0 00-.42-2.88 8 8 0 00-1-2.6A6.06 6.06 0 0038 30.75a7.09 7.09 0 00-2.47-1.24v-.13a8.82 8.82 0 004.53-3.71 11.22 11.22 0 001.37-5.76 9.39 9.39 0 00-.83-4 10.52 10.52 0 00-2.19-3.29A9.87 9.87 0 0035 10.44a12.25 12.25 0 00-4.53-.82H10.31v37.45h8.23V32.53h8.23c2.06 0 3.56.41 4.53 1.37a7.24 7.24 0 011.78 4.25c.14 1.51.41 3.16.41 4.81a18.32 18.32 0 00.82 4.25h8.23a4.16 4.16 0 01-.82-1.92c-.14-.83-.27-1.65-.41-2.47zM31.84 25.4a6.3 6.3 0 01-4.25 1.23h-9V16.07h9.05a6.3 6.3 0 014.25 1.23 5 5 0 011.38 4 4.75 4.75 0 01-1.43 4.1zm86-8.78V9.76H91.38v37.45h8.24v-15.5h15.63v-6.45h-15.5v-8.64zM74 32.94c0 2.75-.55 4.8-1.64 6.17S69.16 41 66.28 41a10.39 10.39 0 01-4-.69A8.17 8.17 0 0160 38.57 5.63 5.63 0 0158.87 36a20.18 20.18 0 01-.27-3V9.62h-8.23v23.32c0 5.08 1.37 8.92 4.11 11.39S61.2 48 66.28 48s8.92-1.23 11.8-3.7 4.25-6.18 4.25-11.25V9.76H74.1v23.18z" fill="#fff"/></g></g></svg>