<svg xmlns="http://www.w3.org/2000/svg" width="35.12" height="28.6"><g id="Layer_2" data-name="Layer 2"><g id="レイヤー_3" data-name="レイヤー 3" fill="none" stroke-linecap="round" stroke-linejoin="round" stroke-width="1.27"><path stroke="#0093ee" d="M2.81 25.38V3.64l13.68-3v24.74M20.46 9.4V2.41L16.49.64"/><path stroke="#e63323" stroke-dasharray="0.18 2.12" d="M4.94 6.48L15.1 4.4M4.94 9.75L15.1 7.94M4.94 12.83l10.16-1.39M4.94 15.97l10.16-1.02m-10.16 4.1l10.16-.65M4.94 22.13l10.16-.22"/><path stroke="#0093ee" d="M.63 25.41h33.85m-17.6 2.55h14.45m-27.54 0h4.7"/><path stroke="#0093ee" stroke-dasharray="0.25 2.22" d="M11.31 27.96h3.22"/><path stroke="#0093ee" d="M29.35 25.38h-10.2V11.65l10.2-2.25v15.98zm0 0h2.96V10.73L29.35 9.4v15.98zm-10.2-9.17l10.2-1.39m-10.2 5.92l10.2-.64m-7.98-8.87v14.15m2.51-14.77v14.77m2.69-15.31v15.31"/></g></g></svg>