<svg xmlns="http://www.w3.org/2000/svg" viewBox="0 0 39.61 29.94"><g id="Layer_2" data-name="Layer 2"><path d="M1.81 9.59l.91.94a2.43 2.43 0 00-.83 0 1.13 1.13 0 00-.55.31 1.24 1.24 0 00-.4.93 1.35 1.35 0 00.41 1 1.41 1.41 0 00.95.46 1.22 1.22 0 00.93-.35 1.29 1.29 0 00.34-.55 2.43 2.43 0 000-.85l.91.94a2.53 2.53 0 01-.65 1.06 2.3 2.3 0 01-1.64.69 2.12 2.12 0 01-1.59-.69 2.14 2.14 0 01-.6-1.65 2.31 2.31 0 01.74-1.63 2.44 2.44 0 011.07-.61zM6 8.78a2.1 2.1 0 01-.18-1.7A2.2 2.2 0 017 5.74a2.27 2.27 0 013.28 2.62A2.28 2.28 0 019.1 9.71 2.22 2.22 0 016 8.78zm.89-.47A1.46 1.46 0 007.7 9a1.2 1.2 0 001-.11 1.25 1.25 0 00.64-.78 1.43 1.43 0 00-.18-1 1.44 1.44 0 00-.78-.71 1.23 1.23 0 00-1 .12 1.21 1.21 0 00-.62.77 1.39 1.39 0 00.15 1.02zM13.27 0l2 7.16-1 .26-2-7.16zm6.28 2.13l.11 2.45c0 .71.33 1 .89 1s.82-.39.79-1.1l-.11-2.46h1l.11 2.47a3.08 3.08 0 01-.09.9 1.47 1.47 0 01-.4.62 2.07 2.07 0 01-2.54.11 1.48 1.48 0 01-.46-.58 2.3 2.3 0 01-.16-.88l-.12-2.47zm7.45.22l.95.26-.1.38a2 2 0 01.57-.26 1.09 1.09 0 01.56 0 1.33 1.33 0 01.94.91 1.5 1.5 0 011.38-.29c.93.25 1.24.94.94 2.07L31.57 8l-1-.26.61-2.3a1.69 1.69 0 00.08-.88.53.53 0 00-.42-.38.63.63 0 00-.65.15 2 2 0 00-.44.9l-.57 2.14-1-.26.61-2.28c.2-.74.09-1.16-.34-1.28a.64.64 0 00-.66.15 1.79 1.79 0 00-.44.9l-.58 2.13-1-.26zM37 6l.84.54-.22.33a1.63 1.63 0 011.27.21 1.51 1.51 0 01.72 1 1.88 1.88 0 01-.41 1.29l-1.42 2.21-.84-.58 1.29-2a1.56 1.56 0 00.33-.83.71.71 0 00-.39-.54.75.75 0 00-.76-.11 2.33 2.33 0 00-.78.83l-1.12 1.74-.83-.54zm-6 8.31L9.94 19l-2.55 6.28 5 4.66 21.09-4.66zM11.94 26.16a1.71 1.71 0 11-.74-3.33 1.69 1.69 0 012 1.29 1.71 1.71 0 01-1.26 2.04z" fill="#15377b" id="レイヤー_3" data-name="レイヤー 3"/></g></svg>