<svg xmlns="http://www.w3.org/2000/svg" viewBox="0 0 20.82 26.22"><defs><style>.cls-1{fill:#15377b}</style></defs><g id="Layer_2" data-name="Layer 2"><g id="レイヤー_3" data-name="レイヤー 3"><path class="cls-1" d="M15.34 10.35a5.17 5.17 0 01-5.15-5.2 5.11 5.11 0 011.51-3.64 5.2 5.2 0 017.32 0 5.17 5.17 0 010 7.32 5.1 5.1 0 01-3.64 1.52zm0-9.34a4.15 4.15 0 00-4.14 4.15 4.16 4.16 0 007.11 3 4.16 4.16 0 000-5.89A4.12 4.12 0 0015.36 1z"/><path class="cls-1" d="M2.59 20.23a.47.47 0 01-.35-.15L.45 18.3a.53.53 0 010-.67l9.84-12.78a.52.52 0 01.57-.17.51.51 0 01.34.48 4.15 4.15 0 004.17 4.18.51.51 0 01.47.34.5.5 0 01-.16.56L2.9 20.12a.51.51 0 01-.31.11zM1.48 17.9l1.15 1.15L14.1 10.2a5.22 5.22 0 01-3.76-3.76zm17.38-8.54a.51.51 0 01-.36-.15L11.32 2a.5.5 0 01.68-.68l7.22 7.18a.51.51 0 010 .71.51.51 0 01-.36.15z"/><path d="M4.52 26.22a4.53 4.53 0 01-3.2-7.72.51.51 0 01.72 0 .5.5 0 010 .71H2a3.52 3.52 0 002.48 6 3.53 3.53 0 002.49-1l8.93-8.93a2.86 2.86 0 014 4.05l-2.65 2.64a.5.5 0 01-.71-.71l2.65-2.65a1.86 1.86 0 000-2.62 1.86 1.86 0 00-2.62 0l-8.85 8.9a4.47 4.47 0 01-3.2 1.33z" fill="#e63323"/></g></g></svg>