<svg xmlns="http://www.w3.org/2000/svg" viewBox="0 0 104.09 46.56"><defs><style>.cls-1{fill:#f80000;}.cls-2{fill:#fff;}</style></defs><g id="Layer_2" data-name="Layer 2"><g id="レイヤー_3" data-name="レイヤー 3"><rect class="cls-1" width="104.09" height="46.56"/><path class="cls-2" d="M33.46,34.7a12.5,12.5,0,0,1-.11-2A7.57,7.57,0,0,0,33.24,31a8.35,8.35,0,0,0-.34-2.35,6.9,6.9,0,0,0-.78-2.13,4.79,4.79,0,0,0-1.34-1.67,5.56,5.56,0,0,0-2-1v-.11a7.22,7.22,0,0,0,3.7-3A9.2,9.2,0,0,0,33.58,16a7.61,7.61,0,0,0-.68-3.24,8.5,8.5,0,0,0-1.79-2.69,8,8,0,0,0-2.79-1.79,9.82,9.82,0,0,0-3.7-.67H8.17V38.17h6.72V26.3H21.6a5,5,0,0,1,3.69,1.12,5.78,5.78,0,0,1,1.46,3.47c.11,1.23.33,2.57.33,3.92a14.92,14.92,0,0,0,.68,3.47h6.71a3.41,3.41,0,0,1-.67-1.57C33.69,36,33.58,35.37,33.46,34.7ZM25.74,20.48a5.13,5.13,0,0,1-3.47,1H14.89V12.87h7.38a5.13,5.13,0,0,1,3.47,1,4.06,4.06,0,0,1,1.12,3.24A3.84,3.84,0,0,1,25.74,20.48Zm70.18-7.16V7.72H74.32V38.28H81V25.63H93.79V20.37H81.14v-7ZM60.1,26.64a8,8,0,0,1-1.34,5c-.9,1-2.58,1.57-4.93,1.57a8.35,8.35,0,0,1-3.24-.56,6.38,6.38,0,0,1-1.9-1.45,4.54,4.54,0,0,1-.9-2.13,17,17,0,0,1-.22-2.46v-19H40.85v19c0,4.14,1.12,7.27,3.36,9.29s5.48,3,9.62,3,7.28-1,9.63-3,3.47-5,3.47-9.18v-19H60.21V26.64Z"/></g></g></svg>