<svg xmlns="http://www.w3.org/2000/svg" viewBox="0 0 14.71 24.78"><defs><style>.cls-1{fill:#fff;fill-rule:evenodd;}</style></defs><g id="Layer_2" data-name="Layer 2"><g id="レイヤー_3" data-name="レイヤー 3"><path class="cls-1" d="M12.45,24.19l-.83.35C3.82,27.38-4.72,3.93,3.09,1.09A9,9,0,0,1,4,.83a2,2,0,0,0,.11.72l1.68,4.6a1.68,1.68,0,0,0,.37.62c-.91,1.22-1.27,3,0,6.49s2.68,4.63,4.15,5a1.91,1.91,0,0,0,.12.7l1.68,4.61a1.81,1.81,0,0,0,.37.63ZM13,18a.92.92,0,1,0-1.72.63l1.67,4.61a.92.92,0,0,0,1.73-.63L13,18ZM6.64.6A.9.9,0,0,0,5.47.06a.91.91,0,0,0-.55,1.17L6.6,5.84a.93.93,0,0,0,1.18.55.91.91,0,0,0,.54-1.17Z"/></g></g></svg>