<svg xmlns="http://www.w3.org/2000/svg" viewBox="0 0 14.71 24.78"><g id="Layer_2" data-name="Layer 2"><path d="M12.45 24.19l-.83.35C3.82 27.38-4.72 3.93 3.09 1.09A9 9 0 014 .83a2 2 0 00.11.72l1.68 4.6a1.68 1.68 0 00.37.62c-.91 1.22-1.27 3 0 6.49s2.68 4.63 4.15 5a1.91 1.91 0 00.12.7l1.68 4.61a1.81 1.81 0 00.37.63zM13 18a.92.92 0 10-1.72.63l1.67 4.61a.92.92 0 001.73-.63L13 18zM6.64.6A.9.9 0 005.47.06a.91.91 0 00-.55 1.17L6.6 5.84a.93.93 0 001.18.55.91.91 0 00.54-1.17z" fill="#fff" fill-rule="evenodd" id="レイヤー_3" data-name="レイヤー 3"/></g></svg>